<svg xmlns="http://www.w3.org/2000/svg" viewBox="230 182 158 158">
  <rect x="240.565" y="192.374" width="138.088" height="138.088" rx="69.0438" fill="#6806E1"/>
  <path d="M336.378 249.007C336.193 248.733 335.939 248.512 335.64 248.369C335.342 248.225 335.011 248.163 334.681 248.188L310.241 250.106L311.882 218.477C311.893 218.055 311.762 217.641 311.509 217.302C311.257 216.964 310.897 216.72 310.489 216.61C310.081 216.501 309.648 216.531 309.259 216.698C308.871 216.864 308.55 217.157 308.348 217.528L282.711 271.931C282.56 272.227 282.49 272.559 282.509 272.891C282.528 273.223 282.635 273.545 282.82 273.822C283.005 274.099 283.26 274.321 283.559 274.467C283.859 274.612 284.191 274.675 284.523 274.649L308.598 272.76L307.811 304.369C307.812 304.789 307.953 305.197 308.212 305.528C308.472 305.858 308.834 306.092 309.242 306.193C309.649 306.294 310.079 306.256 310.463 306.084C310.846 305.912 311.161 305.617 311.357 305.246L336.503 250.887C336.651 250.591 336.717 250.26 336.695 249.93C336.673 249.6 336.564 249.281 336.378 249.007Z" fill="white"/>
</svg>
